<svg width="342" height="56" viewBox="0 0 342 56" fill="none" xmlns="http://www.w3.org/2000/svg">
<path d="M0 8C0 3.58172 3.58172 0 8 0H334C338.418 0 342 3.58172 342 8V48C342 52.4183 338.418 56 334 56H8.00001C3.58173 56 0 52.4183 0 48V8Z" fill="#E3DCD0"/>
<path d="M29.9058 34.16C32.3218 34.16 34.0338 32.864 34.0338 30.704V30.672C34.0338 28.768 32.7858 27.872 30.3058 27.28C28.0178 26.752 27.4738 26.32 27.4738 25.392V25.36C27.4738 24.56 28.2098 23.936 29.4418 23.936C30.5298 23.936 31.5858 24.336 32.6258 25.136L33.6978 23.648C32.5138 22.688 31.1858 22.192 29.4738 22.192C27.1698 22.192 25.5218 23.568 25.5218 25.536V25.568C25.5218 27.696 26.8978 28.448 29.4098 29.04C31.6018 29.552 32.0818 30.016 32.0818 30.864V30.896C32.0818 31.808 31.2498 32.416 29.9538 32.416C28.4978 32.416 27.3618 31.872 26.2418 30.896L25.0578 32.304C26.4498 33.552 28.1138 34.16 29.9058 34.16ZM38.6231 34H47.3111V32.24H40.5751V29.008H46.4791V27.248H40.5751V24.112H47.2311V22.352H38.6231V34ZM51.9043 34H53.8403V25.568L60.3683 34H62.0163V22.352H60.0803V30.56L53.7123 22.352H51.9043V34ZM67.1856 34H71.4896C75.1536 34 77.6816 31.456 77.6816 28.176V28.144C77.6816 24.864 75.1536 22.352 71.4896 22.352H67.1856V34ZM71.4896 24.128C73.9856 24.128 75.6176 25.872 75.6176 28.176V28.208C75.6176 30.528 73.9856 32.224 71.4896 32.224H69.1536V24.128H71.4896Z" fill="black"/>
</svg>
